<?xml version="1.0" encoding="UTF-8"?><svg xmlns="http://www.w3.org/2000/svg" xmlns:xlink="http://www.w3.org/1999/xlink" viewBox="0 0 405.66 382.44"><defs><style>.cls-1{fill:none;}.cls-1,.cls-2,.cls-3,.cls-4,.cls-5,.cls-6,.cls-7,.cls-8,.cls-9,.cls-10{stroke-width:0px;}.cls-11{filter:url(#drop-shadow-1);}.cls-2{fill:#488199;}.cls-3{fill:#498299;}.cls-4{fill:#6f9aab;}.cls-5{fill:#95c8b7;}.cls-6{fill:#dbe5d1;}.cls-7{fill:#add4c5;}.cls-8{fill:#96c8b7;}.cls-9{fill:#f0f6ed;}.cls-10{fill:#f0f6ec;}</style><filter id="drop-shadow-1" filterUnits="userSpaceOnUse"><feOffset dx="5" dy="7"/><feGaussianBlur result="blur" stdDeviation="5"/><feFlood flood-color="#000" flood-opacity=".4"/><feComposite in2="blur" operator="in"/><feComposite in="SourceGraphic"/></filter></defs><g id="_沒陰影"><polygon class="cls-1" points="183.63 81.19 178.38 78.14 135.94 53.97 178.53 78.34 183.63 81.19"/><polygon class="cls-1" points="178.94 127.86 184.05 124.77 178.75 127.93 220.72 152.3 178.94 127.86"/><polygon class="cls-1" points="178.53 78.34 136.38 102.34 136.48 102.4 178.53 78.34"/><polygon class="cls-1" points="220.83 251.9 213.29 247.6 264.72 277.3 221.18 252.04 220.83 251.9"/><polygon class="cls-1" points="220.72 152.3 264.68 128.32 228.12 107.07 264.24 128.34 220.72 152.3"/><polygon class="cls-10" points="264.24 128.34 228.12 107.07 220.87 102.79 220.61 102.94 220.72 152.3 264.24 128.34"/><polygon class="cls-2" points="220.72 152.3 220.61 102.94 184.05 124.77 178.94 127.86 220.72 152.3"/><path class="cls-8" d="m264.72,178.02v-49.71l42.22-24.83L178.94,29.47l-43,24.5,42.44,24.17,5.25,3.05-5.09-2.85-42.05,24.06,42.34,25.64-43.33,25.7,85.22,49.56,44-25.29Zm-85.96-50.09l5.29-3.16,36.56-21.82.26-.15,7.26,4.28,36.56,21.26-43.97,23.98-41.96-24.38Z"/><polygon class="cls-4" points="264.72 128.3 264.72 178.02 307.72 153.3 264.72 128.3"/><polygon class="cls-3" points="307.72 153.3 306.94 103.47 264.72 128.3 307.72 153.3"/><polygon class="cls-3" points="264.72 178.02 220.72 203.3 220.83 251.9 221.18 252.04 264.72 227.3 264.72 277.3 307.72 252.3 307.72 153.3 264.72 178.02"/><polygon class="cls-6" points="213.29 247.6 220.83 251.9 220.72 203.3 178.16 227.3 213.29 247.6"/><polygon class="cls-6" points="221.18 252.04 264.72 277.3 264.72 227.3 221.18 252.04"/><polygon class="cls-9" points="178.16 227.3 220.72 203.3 135.49 153.75 135.05 301.75 178.16 326.64 178.16 227.3"/><polygon class="cls-3" points="178.16 227.3 178.16 326.64 264.72 277.3 213.29 247.6 178.16 227.3"/><polygon class="cls-8" points="91.61 128.08 135.49 153.75 136.38 102.46 91.61 128.08"/><polygon class="cls-7" points="136.48 102.4 136.38 102.34 136.38 102.46 135.49 153.75 178.83 128.04 136.48 102.4"/><polygon class="cls-9" points="90.72 177.75 135.49 153.75 91.61 128.08 90.72 177.75"/><polygon class="cls-6" points="135.27 203.08 135.49 153.75 90.72 177.75 135.27 203.08"/><polygon class="cls-3" points="91.49 276.41 135.05 252.86 135.27 203.08 91.49 228.41 91.49 276.41"/><polygon class="cls-9" points="47.94 202.19 47.94 250.64 91.49 276.41 91.49 228.41 47.94 202.19"/><polygon class="cls-5" points="47.94 202.19 91.49 228.41 135.27 203.08 90.72 177.75 47.94 202.19"/><polygon class="cls-9" points="135.94 53.97 136.38 102.34 178.53 78.34 135.94 53.97"/></g><g id="_有陰影"><g class="cls-11"><polygon class="cls-1" points="183.63 81.19 178.38 78.14 135.94 53.97 178.53 78.34 183.63 81.19"/><polygon class="cls-1" points="178.94 127.86 184.05 124.77 178.75 127.93 220.72 152.3 178.94 127.86"/><polygon class="cls-1" points="178.53 78.34 136.38 102.34 136.48 102.4 178.53 78.34"/><polygon class="cls-1" points="220.83 251.9 213.29 247.6 264.72 277.3 221.18 252.04 220.83 251.9"/><polygon class="cls-1" points="220.72 152.3 264.68 128.32 228.12 107.07 264.24 128.34 220.72 152.3"/><polygon class="cls-10" points="264.24 128.34 228.12 107.07 220.87 102.79 220.61 102.94 220.72 152.3 264.24 128.34"/><polygon class="cls-2" points="220.72 152.3 220.61 102.94 184.05 124.77 178.94 127.86 220.72 152.3"/><path class="cls-8" d="m264.72,178.02v-49.71l42.22-24.83L178.94,29.47l-43,24.5,42.44,24.17,5.25,3.05-5.09-2.85-42.05,24.06,42.34,25.64-43.33,25.7,85.22,49.56,44-25.29Zm-85.96-50.09l5.29-3.16,36.56-21.82.26-.15,7.26,4.28,36.56,21.26-43.97,23.98-41.96-24.38Z"/><polygon class="cls-4" points="264.72 128.3 264.72 178.02 307.72 153.3 264.72 128.3"/><polygon class="cls-3" points="307.72 153.3 306.94 103.47 264.72 128.3 307.72 153.3"/><polygon class="cls-3" points="264.72 178.02 220.72 203.3 220.83 251.9 221.18 252.04 264.72 227.3 264.72 277.3 307.72 252.3 307.72 153.3 264.72 178.02"/><polygon class="cls-6" points="213.29 247.6 220.83 251.9 220.72 203.3 178.16 227.3 213.29 247.6"/><polygon class="cls-6" points="221.18 252.04 264.72 277.3 264.72 227.3 221.18 252.04"/><polygon class="cls-9" points="178.16 227.3 220.72 203.3 135.49 153.75 135.05 301.75 178.16 326.64 178.16 227.3"/><polygon class="cls-3" points="178.16 227.3 178.16 326.64 264.72 277.3 213.29 247.6 178.16 227.3"/><polygon class="cls-8" points="91.61 128.08 135.49 153.75 136.38 102.46 91.61 128.08"/><polygon class="cls-7" points="136.48 102.4 136.38 102.34 136.38 102.46 135.49 153.75 178.83 128.04 136.48 102.4"/><polygon class="cls-9" points="90.72 177.75 135.49 153.75 91.61 128.08 90.72 177.75"/><polygon class="cls-6" points="135.27 203.08 135.49 153.75 90.72 177.75 135.27 203.08"/><polygon class="cls-3" points="91.49 276.41 135.05 252.86 135.27 203.08 91.49 228.41 91.49 276.41"/><polygon class="cls-9" points="47.94 202.19 47.94 250.64 91.49 276.41 91.49 228.41 47.94 202.19"/><polygon class="cls-5" points="47.94 202.19 91.49 228.41 135.27 203.08 90.72 177.75 47.94 202.19"/><polygon class="cls-9" points="135.94 53.97 136.38 102.34 178.53 78.34 135.94 53.97"/></g></g></svg>