<?xml version="1.0" encoding="UTF-8"?><svg id="_圖層_1" xmlns="http://www.w3.org/2000/svg" viewBox="0 0 799.98 280"><defs><style>.cls-1{fill:#5fbe91;}.cls-1,.cls-2,.cls-3,.cls-4{stroke-width:0px;}.cls-2{fill:#2d8fd2;}.cls-3{fill:#3c4650;}.cls-4{fill:#ffe450;}</style></defs><path class="cls-3" d="m557.49,153.5h-10.43c-.12,0-.22-.1-.22-.22V29.91c0-.12-.1-.22-.22-.22h-103.07c-.12,0-.22.1-.22.22v123.37c0,.12-.1.22-.22.22h-10.55c-.12,0-.22.1-.22.22v20.5c0,.12.1.22.22.22h124.94c.12,0,.22-.1.22-.22v-20.5c0-.12-.1-.22-.22-.22Zm-36.65,0h-53.46c-.12,0-.22-.1-.22-.22v-19.75c0-.12.1-.22.22-.22h53.46c.12,0,.22.1.22.22v19.75c0,.12-.1.22-.22.22Zm0-43.18h-53.46c-.12,0-.22-.1-.22-.22v-18.97c0-.12.1-.22.22-.22h53.46c.12,0,.22.1.22.22v18.97c0,.12-.1.22-.22.22Zm0-42.6h-53.46c-.12,0-.22-.1-.22-.22v-19.71c0-.12.1-.22.22-.22h53.46c.12,0,.22.1.22.22v19.71c0,.12-.1.22-.22.22Z"/><path class="cls-3" d="m437.14,128.69c-13.84-18.13-22.87-32.61-28.23-42.02-.04-.07.01-.14.09-.14h23.45c.06,0,.1-.05.1-.1v-22.12c0-.06-.04-.1-.1-.1h-29.7c-.06,0-.1-.05-.1-.1v-14.09c0-.05.04-.1.1-.1h26.51c.06,0,.1-.04.1-.1v-21.16c0-.06-.04-.1-.1-.1h-80.19c-.06,0-.1.04-.1.1v21.16c0,.06.04.1.1.1h29.17c.06,0,.1.05.1.1v14.09c0,.06-.04.1-.1.1h-32.36c-.06,0-.1.04-.1.1v22.12c0,.05.04.1.1.1h26.97c.08,0,.13.08.09.15-7.29,12.48-19.83,31.78-39.44,55.6l-.69.84,17.59,14.5.7-.85c9.95-12.08,19.03-24.12,27.06-35.84.06-.08.18-.04.18.06v54.43c0,.06.04.1.1.1h24.1c.06,0,.1-.04.1-.1v-56.19c0-.1.12-.14.18-.06,5.1,7.61,10.66,15.36,16.55,23.08l.68.87,17.75-13.55-.67-.87Z"/><path class="cls-3" d="m706.91,28.78v-6.81c0-.32-.26-.58-.58-.58h-25.32c-.32,0-.58.26-.58.58v6.81c0,.32-.26.58-.58.58h-86.94c-.32,0-.58.26-.58.58v35.06c0,.32.26.58.58.58h21.94c.32,0,.58-.26.58-.58v-17.68c0-.32.26-.58.58-.58h160.28c.32,0,.58.26.58.58v17.68c0,.32.26.58.58.58h21.94c.32,0,.58-.26.58-.58V29.95c0-.32-.26-.58-.58-.58h-91.91c-.32,0-.58-.26-.58-.58Z"/><path class="cls-3" d="m706.66,109.09h60.14c.15,0,.28-.13.28-.28v-52.61c0-.16-.13-.28-.28-.28h-140.85c-.16,0-.28.13-.28.28v52.61c0,.15.13.28.28.28h54.69c.15,0,.28.13.28.28v7.69c0,.16-.13.28-.28.28h-83.87c-.16,0-.28.13-.28.28v57.6c0,.16.13.28.28.28h24.78c.16,0,.28-.13.28-.28v-40.87c0-.15.13-.28.28-.28h58.53c.15,0,.28.13.28.28v13.66c0,.16-.13.28-.28.28h-40.94c-.15,0-.28.13-.28.28v17.72c0,.16.13.28.28.28h71.74c11.41,0,22.82-2.48,32.99-7.18l10.33-4.75c.15-.07.21-.26.12-.4l-9.06-15.2c-.07-.12-.21-.18-.34-.12-.87.42-4.46,2.14-10.08,4.61-6.49,2.85-15.73,4.76-23.97,4.76h-4.78c-.15,0-.28-.13-.28-.28v-13.66c0-.15.13-.28.28-.28h64.01c.15,0,.28.13.28.28v40.87c0,.16.13.28.28.28h24.67c.15,0,.28-.13.28-.28v-57.6c0-.15-.13-.28-.28-.28h-89.24c-.15,0-.28-.13-.28-.28v-7.69c0-.15.13-.28.28-.28Zm0-40.28h33.66c.15,0,.28.13.28.28v7.72c0,.15-.13.28-.28.28h-33.66c-.15,0-.28-.13-.28-.28v-7.72c0-.15.13-.28.28-.28Zm0,19.05h33.66c.15,0,.28.13.28.28v7.72c0,.15-.13.28-.28.28h-33.66c-.15,0-.28-.13-.28-.28v-7.72c0-.15.13-.28.28-.28Zm-26.02,8.28h-29.61c-.15,0-.28-.13-.28-.28v-7.72c0-.15.13-.28.28-.28h29.61c.15,0,.28.13.28.28v7.72c0,.15-.13.28-.28.28Zm0-19.05h-29.61c-.15,0-.28-.13-.28-.28v-7.72c0-.15.13-.28.28-.28h29.61c.15,0,.28.13.28.28v7.72c0,.15-.13.28-.28.28Z"/><path class="cls-3" d="m431.3,214.69v-10.2c0-.13-.1-.23-.23-.23h-59.04c-.13,0-.23.1-.23.23v11.4c0,.13.1.23.23.23h36.28c.07,0,.1.08.05.12l-36.37,35.95c-.12.12-.19.28-.19.44v11.52c0,.13.1.23.23.23h60.57c.13,0,.23-.1.23-.23v-11.36c0-.13-.1-.23-.23-.23h-39.41c-.03-.07-.03-.08-.06-.15l38.08-37.51c.06-.06.09-.13.09-.21Z"/><path class="cls-3" d="m501.63,237.87c0,4.56-.2,7.85-.62,9.79-.37,1.74-1.47,3.2-3.38,4.44-1.92,1.26-4.9,1.9-8.85,1.9s-6.97-.68-9.16-2.03c-2.15-1.33-3.46-3.03-4.03-5.19-.34-1.41-.52-4.64-.52-9.59v-32.78c0-.08-.07-.15-.15-.15h-16.39c-.08,0-.15.07-.15.15v32.3c0,6.76.48,11.74,1.47,15.24.71,2.43,2.18,4.78,4.37,6.97,2.17,2.18,5.16,3.96,8.87,5.29,3.68,1.34,9.1,2.02,16.11,2.02,5.84,0,10.65-.62,14.29-1.84,3.68-1.23,6.69-2.92,8.92-5.02,2.26-2.13,3.83-4.78,4.66-7.87.82-3.04,1.23-8.03,1.23-15.26v-31.81c0-.08-.07-.15-.15-.15h-16.39c-.08,0-.15.07-.15.15v33.46Z"/><path class="cls-3" d="m576.7,226.29l-16.31-21.93c-.04-.06-.12-.1-.19-.1h-19.31c-.14,0-.22.16-.13.28l27.41,34.67s.05.09.05.15v24.93c0,.05.04.1.1.1h16.44c.05,0,.1-.04.1-.1v-24.85c.02-.05.03-.1.05-.15l27.54-34.78c.08-.1,0-.25-.12-.25h-19.06c-.08,0-.15.04-.19.1l-15.98,21.93c-.09.13-.29.13-.38,0Z"/><path class="cls-3" d="m659.72,203.27c-5.99,0-11.37.79-15.98,2.36-3.51,1.16-6.78,2.99-9.7,5.4-2.95,2.43-5.31,5.21-7.01,8.26-2.29,4.16-3.44,9.34-3.44,15.39,0,9.51,3.34,17.11,9.93,22.57,6.54,5.4,15.42,8.13,26.4,8.13s19.68-2.75,26.22-8.19c6.58-5.47,9.92-13.13,9.92-22.79s-3.37-17.44-10-22.93c-6.57-5.44-15.44-8.2-26.33-8.2m19.14,30.86c0,6.41-1.77,11.25-5.28,14.4h0c-3.53,3.18-8.15,4.8-13.71,4.8s-10.2-1.63-13.79-4.83c-3.55-3.19-5.36-7.96-5.36-14.21s1.75-11.14,5.21-14.24c3.49-3.13,8.18-4.71,13.94-4.71s10.43,1.57,13.86,4.65c3.41,3.06,5.14,7.82,5.14,14.15"/><path class="cls-3" d="m759.88,237.41c0,4.5-.21,7.75-.62,9.65-.37,1.72-1.47,3.16-3.38,4.37-1.93,1.25-4.91,1.88-8.86,1.88s-6.97-.68-9.16-2.01c-2.15-1.32-3.46-2.99-4.03-5.11-.34-1.4-.52-4.58-.52-9.46v-32.42s-.03-.07-.07-.07h-16.55s-.07.03-.07.07v31.94c0,6.66.48,11.58,1.47,15.02.71,2.4,2.18,4.71,4.37,6.87,2.18,2.15,5.16,3.91,8.87,5.22,3.68,1.33,9.1,1.99,16.11,1.99,5.84,0,10.65-.61,14.29-1.82,3.69-1.21,6.69-2.89,8.92-4.95,2.26-2.1,3.83-4.72,4.67-7.77.82-3,1.23-7.92,1.23-15.05v-31.46s-.03-.07-.07-.07h-16.55s-.07.03-.07.07v33.09Z"/><path class="cls-4" d="m223.79,19.75c-19.66,0-35.6,15.94-35.6,35.6s15.94,35.6,35.6,35.6,35.6-15.94,35.6-35.6-15.94-35.6-35.6-35.6Z"/><path class="cls-2" d="m280.52,134.67c-.84-22.81-9.69-35.76-21.8-48.46-4.94,5.58-11.17,9.96-18.25,12.68,11.81,11.97,17.56,20.23,18.16,36.58.98,26.89-1.91,71.13-5.14,99.1-1.54,13.41-11.54,23.52-23.24,23.52H50.47c-11.7,0-21.7-10.11-23.24-23.52-3.23-27.98-6.12-72.22-5.14-99.1.64-17.42,7.04-25.61,20.47-38.93,22.03-21.86,56.06-49.44,80.72-68.74,5.11-3.99,11.09-5.99,17.08-5.99s11.96,2,17.07,5.99c6.49,5.07,13.63,10.73,21.02,16.69,1.79-7.47,5.37-14.24,10.28-19.84-6.24-5.01-12.27-9.77-17.81-14.11-18-14.08-43.13-14.07-61.13,0-25.13,19.66-59.87,47.83-82.66,70.44C12.46,95.56,1.16,108.76.2,134.67c-1.02,27.96,1.95,73.63,5.27,102.41,2.82,24.47,22.17,42.91,45,42.91h179.78c22.83,0,42.18-18.45,45-42.91,3.32-28.78,6.29-74.45,5.27-102.42Z"/><path class="cls-1" d="m183.97,232.43h-32.75c-.72,0-1.13-.82-.7-1.39l60.4-80.43c.5-.67,1.57-.31,1.57.52v52.78c0,15.75-12.77,28.52-28.52,28.52Z"/><path class="cls-1" d="m112.36,232.43h-47.37c-1.44,0-2.26-1.65-1.39-2.79l89.83-119.23c3.91-5.14,9.99-8.15,16.44-8.15h44.61c1.43,0,2.25,1.64,1.39,2.79l-90.9,121.09c-2.98,3.97-7.65,6.3-12.61,6.3Z"/><path class="cls-1" d="m84.23,156.06l-19.63-33.69c-5.58-9.58,1.33-21.61,12.42-21.61h50.42c1.81,0,2.71,2.17,1.43,3.45-4.5,4.51-12.25,15.48-39.38,52.13-1.35,1.82-4.11,1.67-5.25-.29Z"/></svg>